<?xml version="1.0" standalone="no"?>
<!DOCTYPE svg PUBLIC "-//W3C//DTD SVG 20010904//EN"
 "http://www.w3.org/TR/2001/REC-SVG-20010904/DTD/svg10.dtd">
<svg version="1.0" xmlns="http://www.w3.org/2000/svg"
 width="512.000000pt" height="512.000000pt" viewBox="0 0 512.000000 512.000000"
 preserveAspectRatio="xMidYMid meet">
<metadata>
Created by potrace 1.14, written by Peter Selinger 2001-2017
</metadata>
<g transform="translate(0.000000,512.000000) scale(0.100000,-0.100000)"
fill="#000000" stroke="none">
<path d="M2265 5105 c-6 -8 -30 -17 -55 -20 -54 -6 -95 -12 -95 -15 0 -2 -33
-10 -55 -14 -45 -7 -126 -30 -136 -37 -6 -5 -14 -6 -17 -3 -3 3 -12 2 -19 -2
-7 -5 -15 -9 -18 -9 -5 -1 -113 -41 -140 -52 -8 -3 -17 -7 -20 -8 -23 -6 -192
-87 -200 -95 -3 -3 -21 -13 -40 -24 -66 -35 -100 -56 -176 -106 -41 -27 -81
-50 -88 -50 -6 0 -16 -4 -21 -9 -6 -6 -21 -12 -35 -15 -36 -7 -93 -27 -107
-38 -7 -5 -16 -7 -22 -4 -5 4 -15 0 -23 -6 -7 -7 -38 -26 -68 -41 -72 -36 -83
-43 -160 -101 -73 -56 -154 -136 -181 -181 -11 -16 -19 -25 -19 -20 0 6 -15
-15 -32 -45 -18 -30 -35 -57 -38 -60 -18 -15 -87 -170 -96 -219 -3 -14 -8 -29
-12 -35 -3 -6 -7 -15 -9 -21 -11 -50 -15 -74 -17 -95 -1 -14 -4 -29 -7 -35 -8
-13 -3 -299 5 -350 13 -70 9 -177 -8 -285 -3 -14 -7 -45 -10 -70 -4 -25 -8
-52 -11 -60 -2 -8 -7 -27 -10 -42 -13 -69 -20 -97 -28 -118 -8 -21 -27 -84
-32 -106 -2 -10 -12 -46 -21 -79 -9 -33 -17 -64 -19 -70 -1 -5 -5 -21 -9 -35
-4 -14 -9 -43 -12 -65 -2 -22 -8 -60 -11 -85 -9 -67 -9 -426 1 -495 4 -33 9
-71 11 -85 2 -14 4 -26 5 -27 3 -4 5 -12 14 -68 4 -27 13 -56 19 -64 7 -8 10
-15 8 -15 -6 -1 20 -109 29 -121 5 -5 8 -12 9 -15 0 -8 13 -43 33 -90 11 -25
21 -53 24 -64 2 -10 10 -26 19 -36 8 -9 15 -24 15 -33 0 -8 6 -22 13 -29 6 -7
25 -38 41 -68 16 -30 35 -62 42 -71 8 -8 14 -21 14 -27 0 -7 5 -12 10 -12 6 0
10 -5 10 -10 0 -6 5 -16 10 -23 6 -7 34 -43 62 -82 29 -38 55 -71 60 -73 4 -2
8 -10 8 -18 0 -9 5 -12 10 -9 6 3 10 2 10 -4 0 -5 16 -27 36 -48 113 -120 136
-143 139 -143 3 0 20 -15 39 -32 69 -65 97 -88 105 -88 5 0 11 -4 13 -8 2 -4
25 -23 53 -42 27 -19 55 -40 62 -47 21 -19 223 -137 293 -170 98 -47 178 -83
184 -83 2 0 17 -5 33 -12 15 -6 30 -12 33 -12 3 -1 19 -6 35 -13 61 -23 70
-26 90 -30 11 -2 36 -9 55 -15 19 -6 35 -10 35 -8 0 2 10 -2 22 -8 12 -7 37
-14 55 -17 18 -2 44 -7 58 -10 14 -3 36 -8 50 -10 14 -2 36 -7 50 -10 14 -3
48 -8 75 -11 28 -4 58 -11 69 -16 13 -7 21 -6 27 3 6 11 11 11 21 1 16 -16
518 -18 518 -1 0 8 4 8 14 0 11 -9 20 -10 35 -2 11 6 39 13 63 15 24 2 43 5
43 6 0 1 14 3 30 5 17 1 30 3 30 4 0 1 11 4 25 6 21 3 116 24 184 40 47 11
134 37 167 50 20 8 39 11 43 8 3 -4 6 -1 6 5 0 7 3 11 8 10 6 -1 29 7 82 29 8
3 24 8 34 10 11 2 27 9 35 16 9 7 36 22 61 32 58 25 203 106 211 118 3 5 10 9
15 9 14 -1 175 108 212 141 17 17 32 28 32 24 0 -3 11 4 24 16 93 87 200 183
210 189 6 4 8 8 4 8 -4 0 8 16 27 35 43 43 173 208 205 261 13 21 29 42 34 46
6 4 7 8 2 8 -5 0 -2 8 6 18 24 28 70 112 61 112 -4 0 -3 4 3 8 10 6 84 153 84
166 0 3 4 15 9 28 5 13 8 26 7 29 0 3 4 12 11 20 6 8 17 34 24 59 7 25 14 50
15 55 15 46 45 178 49 210 3 22 8 63 12 90 9 58 8 411 0 470 -13 87 -19 122
-32 175 -8 30 -16 66 -19 80 -12 57 -23 97 -33 115 -6 11 -11 23 -12 28 -5 45
-15 87 -20 87 -4 0 -7 8 -8 18 -2 18 -7 47 -18 97 -4 17 -8 44 -10 60 -1 17
-4 30 -5 30 -1 0 -3 16 -5 35 -1 19 -5 48 -8 64 -4 16 -9 50 -13 75 -3 25 -13
75 -21 111 -8 36 -17 76 -19 90 -3 14 -7 32 -10 40 -4 8 -8 24 -10 35 -5 31
-60 188 -78 222 -8 17 -12 33 -9 37 4 3 1 6 -5 6 -7 0 -11 3 -10 8 2 4 -8 30
-20 57 -24 52 -32 66 -63 121 -10 19 -28 51 -40 71 -43 76 -155 234 -171 241
-5 2 -8 8 -8 13 0 5 -16 25 -35 43 -19 19 -35 37 -35 40 0 10 -141 146 -151
146 -6 0 -8 3 -6 8 4 5 -116 105 -228 190 -5 4 -44 29 -85 54 -41 26 -80 51
-85 55 -6 4 -17 9 -25 11 -8 2 -17 7 -20 11 -7 9 -63 35 -72 33 -5 -1 -8 2 -8
6 0 5 -18 15 -40 22 -22 7 -40 17 -40 22 0 4 -9 8 -20 8 -11 0 -20 4 -20 8 0
5 -6 9 -12 10 -13 1 -65 19 -123 43 -16 7 -34 13 -40 14 -5 2 -41 12 -80 23
-63 18 -135 36 -190 48 -11 3 -42 7 -70 10 -27 3 -54 12 -58 20 -12 22 -568
21 -582 -1z"/>
</g>
</svg>
